<?xml version="1.0" encoding="utf-8"?>
<!-- Generator: Adobe Illustrator 16.2.1, SVG Export Plug-In . SVG Version: 6.00 Build 0)  -->
<!DOCTYPE svg PUBLIC "-//W3C//DTD SVG 1.1//EN" "http://www.w3.org/Graphics/SVG/1.1/DTD/svg11.dtd">
<svg version="1.1" id="Layer_1" xmlns="http://www.w3.org/2000/svg" xmlns:xlink="http://www.w3.org/1999/xlink" x="0px" y="0px"
	 width="80.953px" height="85.714px" viewBox="0 0 80.953 85.714" enable-background="new 0 0 80.953 85.714" xml:space="preserve">
<radialGradient id="SVGID_1_" cx="16.3945" cy="7.4878" r="32.4167" gradientTransform="matrix(1.2405 0 0 1.2285 20.2034 35.5507)" gradientUnits="userSpaceOnUse">
	<stop  offset="0" style="stop-color:#FFFF25"/>
	<stop  offset="0.063" style="stop-color:#FFF61F"/>
	<stop  offset="0.2938" style="stop-color:#FEDC11"/>
	<stop  offset="0.5009" style="stop-color:#FECC08"/>
	<stop  offset="0.6628" style="stop-color:#FEC601"/>
	<stop  offset="0.8144" style="stop-color:#FEC600"/>
	<stop  offset="1" style="stop-color:#FB7B1E"/>
	<stop  offset="1" style="stop-color:#F9441B"/>
	<stop  offset="1" style="stop-color:#F71818"/>
</radialGradient>
<path fill="url(#SVGID_1_)" d="M80.753,44.751c0,21.993-18.002,39.822-40.21,39.822c-22.209,0-40.215-17.829-40.215-39.822
	c0-21.996,18.005-39.825,40.215-39.825C62.751,4.926,80.753,22.755,80.753,44.751z"/>
<radialGradient id="SVGID_2_" cx="47.7603" cy="33.001" r="30.9485" gradientTransform="matrix(1.0876 0 0 1.0715 -11.2084 9.2581)" gradientUnits="userSpaceOnUse">
	<stop  offset="0" style="stop-color:#FFFF25"/>
	<stop  offset="0.063" style="stop-color:#FFF61F"/>
	<stop  offset="0.2938" style="stop-color:#FEDC11"/>
	<stop  offset="0.5009" style="stop-color:#FECC08"/>
	<stop  offset="0.6628" style="stop-color:#FEC601"/>
	<stop  offset="0.8144" style="stop-color:#FEC600"/>
	<stop  offset="1" style="stop-color:#FB7B1E"/>
	<stop  offset="1" style="stop-color:#F9441B"/>
	<stop  offset="1" style="stop-color:#F71818"/>
</radialGradient>
<ellipse fill="url(#SVGID_2_)" cx="40.736" cy="44.619" rx="33.659" ry="33.162"/>
<radialGradient id="CLIPPING_MASK_2_2_" cx="47.7603" cy="33.001" r="30.9485" gradientTransform="matrix(1.0876 0 0 1.0715 -11.2084 9.2581)" gradientUnits="userSpaceOnUse">
	<stop  offset="0" style="stop-color:#FFFF25"/>
	<stop  offset="0.063" style="stop-color:#FFF61F"/>
	<stop  offset="0.2938" style="stop-color:#FEDC11"/>
	<stop  offset="0.5009" style="stop-color:#FECC08"/>
	<stop  offset="0.6628" style="stop-color:#FEC601"/>
	<stop  offset="0.8144" style="stop-color:#FEC600"/>
	<stop  offset="1" style="stop-color:#FB7B1E"/>
	<stop  offset="1" style="stop-color:#F9441B"/>
	<stop  offset="1" style="stop-color:#F71818"/>
</radialGradient>
<ellipse id="CLIPPING_MASK_2_1_" fill="url(#CLIPPING_MASK_2_2_)" cx="40.736" cy="44.619" rx="33.659" ry="33.162"/>
<radialGradient id="SVGID_3_" cx="40.2617" cy="44.4722" r="26.8762" gradientUnits="userSpaceOnUse">
	<stop  offset="0.0012" style="stop-color:#1E99C4"/>
	<stop  offset="0.1661" style="stop-color:#1D85BA"/>
	<stop  offset="0.319" style="stop-color:#1D77B4"/>
	<stop  offset="0.4209" style="stop-color:#1D72B1"/>
	<stop  offset="0.4395" style="stop-color:#1C77B4"/>
	<stop  offset="0.5173" style="stop-color:#1B88BC"/>
	<stop  offset="0.5872" style="stop-color:#1A92C1"/>
	<stop  offset="0.6418" style="stop-color:#1A96C2"/>
	<stop  offset="1" style="stop-color:#74C3DC"/>
</radialGradient>
<path fill="url(#SVGID_3_)" d="M67.137,44.472c0,14.841-12.029,26.877-26.874,26.877c-14.845,0-26.877-12.036-26.877-26.877
	c0-14.843,12.033-26.876,26.877-26.876C55.108,17.596,67.137,29.629,67.137,44.472z"/>
<radialGradient id="SVGID_4_" cx="40.2617" cy="44.4722" r="26.8762" gradientUnits="userSpaceOnUse">
	<stop  offset="0.0012" style="stop-color:#1E99C4"/>
	<stop  offset="0.1661" style="stop-color:#1D85BA"/>
	<stop  offset="0.319" style="stop-color:#1D77B4"/>
	<stop  offset="0.4209" style="stop-color:#1D72B1"/>
	<stop  offset="0.4395" style="stop-color:#1C77B4"/>
	<stop  offset="0.5173" style="stop-color:#1B88BC"/>
	<stop  offset="0.5872" style="stop-color:#1A92C1"/>
	<stop  offset="0.6418" style="stop-color:#1A96C2"/>
	<stop  offset="1" style="stop-color:#74C3DC"/>
</radialGradient>
<path fill="url(#SVGID_4_)" d="M67.137,44.472c0,14.841-12.029,26.877-26.874,26.877c-14.845,0-26.877-12.036-26.877-26.877
	c0-14.843,12.033-26.876,26.877-26.876C55.108,17.596,67.137,29.629,67.137,44.472z"/>
<path fill="#A09D98" d="M31.59,53.536l1.621,16.834c0,0,13.234,4.386,24.578-5.59c0,0-6.706-4.444-10.263-3.761
	c0,0-7.607,4.675-10.872-3.828C36.654,57.191,37.183,56.246,31.59,53.536z"/>
<path fill="#A09D98" stroke="#000000" stroke-width="0.25" stroke-linecap="round" stroke-miterlimit="10" d="M57.637,64.78
	c0,0-6.211-4.053-9.928-3.802c0,0-7.943,4.867-11.207-3.642c0,0,0.527-0.942-5.067-3.653l1.471,16.445"/>
<path fill="#6D6D6D" d="M32.317,54.876c0,0,1.168,0.78,4.516,2.026c1.663,0.62,1.994,2.915,3.486,4.723c0,0,1.003,1.424,7.672-0.647
	c0,0,3.719,0.593,5.377,1.641c0,0-5.23,3.375-11.936,1.689c0,0-2.828-1.057-4.807-4.743C36.625,59.565,32.858,55.252,32.317,54.876z
	"/>
<path fill="#E8E7E6" d="M31.908,56.511c0,0,0.768,1.707,1.495,8.154l0.634,3.547l-0.822,0.823
	C33.215,69.036,32.138,58.711,31.908,56.511z"/>
<path fill="#707070" d="M34.37,70.597l4.384-5.272c0,0-4.625,1.216-6.011,3.769l0.109,1.137L34.37,70.597z"/>
<path fill="#483423" stroke="#000000" stroke-width="0.25" stroke-linecap="round" stroke-linejoin="round" stroke-miterlimit="10" d="
	M32.546,31.629c0.226,0-1.69-1.579-2.876-2.016l0.463,2.668l-1.801-1.333c0,0-0.805,1.6,1.455,3.633l-2.49-0.459
	c0,0,1.877,2.146,2.722,2.452l-2.722,0.192c0,0-0.384,2.222-0.959,3.487c-0.047,0.104,0,0.114,0,0.114l3.335,0.061
	c0,0-2.07,1.549-3.218,1.817l-0.729,4.366c0,0,2.919-1.109,3.471-1.797l-3.201,3.524c0,0,1.073,3.278,1.035,5.138l1.954-0.882
	c0,0-1.034,2.49-1.648,3.258c1.303-0.308,2.106,0,2.106,0s-0.267,0.763-1.647,2.222c0.384,0.406,1.955-0.73,1.955-0.73
	s0.013,2.235-0.553,2.837c1.153,0.447,2.891,2.754,2.891,2.754l-0.576-8.601c0,0-3.356-3.388-2.518-7.064
	c0,0,2.381-7.246,2.949-10.245C32.147,35.936,32.322,31.629,32.546,31.629z"/>
<g opacity="0.5">
	<g>
		<g>
			<g>
				<polygon fill="#BD790C" points="26.928,44.945 26.932,44.933 26.937,44.901 				"/>
				<path fill="#BD790C" d="M26.968,44.738l-0.005,0.008l-0.018,0.124C26.964,44.82,26.957,44.771,26.968,44.738z"/>
				<path fill="#BD790C" d="M26.977,44.703c0.014-0.046,0.012-0.067,0.012-0.079C26.99,44.642,26.969,44.709,26.977,44.703z"/>
				<path fill="#BD790C" d="M29.241,41.768l-0.012,0.01C29.237,41.774,29.24,41.771,29.241,41.768z"/>
				<path fill="#BD790C" d="M29.987,40.94l0.002-0.012c-0.082,0.196-0.296,0.316-0.445,0.472l0.01-0.011
					c-0.19,0.204-0.444,0.304-0.664,0.451c-0.223,0.143-0.451,0.276-0.705,0.382c0.007-0.006,0.006-0.014,0.013-0.021
					c-0.021,0.019-0.041,0.045-0.069,0.054c-0.01-0.002,0.002-0.014,0.01-0.02c-0.123,0.006-0.304,0.155-0.383,0.154
					c-0.028,0.017-0.036,0.037-0.014,0.042l-0.301,0.13c-0.12,0.02-0.079,0.099-0.109,0.225c-0.03,0.218-0.061,0.437-0.092,0.659
					c-0.007,0.02-0.014,0.022-0.021,0.016c-0.022,0.373-0.141,0.761-0.22,1.131c0,0.016,0.013-0.036,0.008,0.002
					c0.035-0.117,0.039-0.224,0.073-0.329l0.002,0.016c0.023-0.078-0.011-0.021,0.016-0.102c0.013-0.03,0.006,0.011,0.01-0.004
					c0.036-0.17,0.086-0.348,0.097-0.512c0.027-0.036,0.035-0.182,0.067-0.241c0-0.045,0.01-0.089-0.002-0.108l0.086-0.446
					l0.038-0.215c-0.012-0.028,0.02-0.023,0.108-0.064l0.862-0.354c0.243-0.16,0.576-0.286,0.871-0.474
					c0.004,0.002,0.005,0.005,0.005,0.008c0.106-0.082,0.222-0.172,0.33-0.255l0.061-0.107c0.162-0.125,0.351-0.23,0.458-0.425
					c0.061-0.089,0.127-0.177,0.18-0.272l0.084-0.33c0.02-0.111-0.011-0.231-0.019-0.346l-0.062-0.166
					c-0.009-0.027-0.024-0.055-0.043-0.083c-0.007,0.012-0.022-0.088-0.088-0.081l-0.078-0.001l-0.612-0.021
					c-0.463-0.023-0.9-0.044-1.33-0.065l-0.324-0.001c-0.146,0-0.093,0.007-0.16,0.014c-0.019,0.002-0.048,0.012-0.067,0.011
					l-0.005-0.05c-0.003-0.041-0.011-0.08,0.005-0.217c0.012,0.005,0.021,0,0.021,0.023c0.045-0.258,0.159-0.472,0.199-0.716
					l0.013,0.004c0.029-0.308,0.12-0.612,0.208-0.913l0.045-0.155c0.039-0.018,0.097-0.01,0.146-0.019
					c0.148-0.012,0.304-0.032,0.449-0.068c0.358,0.007,0.74-0.033,1.124-0.091c0.374-0.067,0.791-0.153,1.066-0.422l0.02,0.02
					c0.123-0.111,0.122-0.327,0.005-0.439l-0.314-0.318c-0.195-0.207-0.436-0.453-0.627-0.596c-0.105-0.131-0.275-0.243-0.5-0.419
					c0.158-0.022,0.594,0.031,0.948,0.054c0.043,0.005,0.125,0.029,0.157-0.043c0.033-0.057,0.038-0.11,0.044-0.166
					c0.008-0.111-0.005-0.223-0.018-0.334c-0.004-0.108,0.003-0.226-0.019-0.319c-0.055-0.082-0.102-0.152-0.166-0.245
					c-0.151-0.35-0.349-0.661-0.577-0.951c-0.115-0.14-0.232-0.282-0.353-0.429c-0.055-0.067-0.125-0.136-0.178-0.216l-0.083-0.117
					l-0.043-0.06c-0.002-0.012,0.039,0.003,0.056,0.003c0.352,0.061,0.685,0.119,1.026,0.178c0.153,0.018,0.371,0.083,0.469,0.062
					c0.001-0.162,0.003-0.323,0.004-0.504c0.001-0.183,0.001-0.313,0.002-0.496c0.008-0.159,0.017-0.313,0.024-0.461l-0.015-0.027
					c0.066,0.102,0.184,0.166,0.226,0.251l-0.01-0.009c0.04,0.054,0.121,0.1,0.14,0.138l0.009,0.006
					c0.055,0.06,0.004,0.009,0.046,0.056c0.016,0.018,0.009,0.004,0.041,0.041c0,0.015,0.136,0.146,0.129,0.159
					c-0.031-0.032,0.044,0.054-0.027-0.016c0.019,0.021,0.114,0.119,0.108,0.107c0.011,0.005,0.049,0.042-0.003-0.021l-0.014-0.01
					c-0.014-0.021-0.007-0.011-0.018-0.026c-0.039-0.047-0.088-0.106-0.128-0.154v0c-0.083-0.091-0.089-0.098-0.113-0.124
					l-0.01-0.014c-0.014-0.022-0.088-0.086-0.061-0.066c-0.113-0.099-0.423-0.581-0.339-0.096c0.003,0.034-0.001,0.188,0.005,0.134
					c-0.007,0.062-0.009,0.244-0.009,0.312c-0.001-0.008-0.001-0.011-0.001-0.016c-0.01,0.131,0.008,0.156-0.003,0.279
					c0.008,0.019-0.003,0.224,0.007,0.293c-0.002,0.015-0.004,0.021-0.005,0.015l-0.001,0.169c-0.014,0.073,0.031,0.1-0.037,0.074
					c-0.111-0.021-0.218-0.04-0.309-0.057c-0.159-0.02-0.381-0.071-0.519-0.084c-0.104-0.021-0.298-0.06-0.477-0.085l0.015,0.001
					c-0.049-0.008-0.101-0.017-0.154-0.026s-0.129-0.032-0.063,0.034c0.052,0.071,0.102,0.139,0.162,0.221
					c0.017,0.044,0.076,0.126,0.114,0.188c0.097,0.135,0.199,0.277,0.317,0.443c0.012,0.026,0.088,0.123,0.087,0.135
					c0.173,0.245,0.323,0.455,0.483,0.681c0.077,0.115,0.156,0.231,0.236,0.351c0.003,0.144,0.001,0.286-0.007,0.422l0-0.008
					c0.003,0.071,0.007,0.152,0.005,0.224c-0.001,0.007-0.003,0.006-0.001-0.009c-0.014,0.097-0.033,0.202-0.143,0.188
					c0-0.002,0.002,0,0.016-0.004c-0.092,0.007-0.185-0.007-0.305-0.011l-0.007-0.003l-0.075-0.003c0-0.003,0.001-0.007,0.043-0.002
					c-0.286-0.029-0.577-0.068-0.868-0.111c0.469,0.417,0.949,0.844,1.422,1.265l-0.026-0.02l0.131,0.11
					c-0.002,0-0.008-0.004-0.015-0.009c0.071,0.082,0.188,0.132,0.205,0.237c0.031,0.103-0.017,0.205-0.094,0.274
					c0-0.002,0.017-0.027-0.003-0.007c-0.097,0.116-0.215,0.115-0.267,0.175c-0.007,0.002-0.013,0.001,0-0.008
					c-0.399,0.169-0.851,0.218-1.288,0.259c-0.364,0.048-0.773,0.032-1.156,0.062l0-0.003c-0.166-0.045-0.145,0.146-0.191,0.254
					l-0.105,0.368l-0.213,0.74c-0.057,0.205-0.096,0.344-0.153,0.548l-0.005,0.004c-0.029,0.106-0.049,0.184-0.072,0.268
					l-0.041,0.138c-0.002,0.038,0.081,0.012,0.118,0.021c0.193,0.003,0.391,0.006,0.576-0.002l-0.026,0.005
					c0.058-0.016,0.227,0.019,0.205-0.027c0,0.008,0.066,0.028,0.066,0.02c0.254-0.108,0.463,0.053,0.775-0.013
					c0,0.006-0.021,0.016-0.021,0.013c0.083,0.002,0.18-0.025,0.241-0.001c-0.006,0-0.012,0.001-0.024,0.002
					c0.26,0.013,0.549-0.001,0.823,0l-0.031,0.006c0.082-0.032,0.131,0.042,0.16,0.145c0.049,0.088,0.037,0.197,0.053,0.282
					l-0.004-0.011c0,0,0.017,0.087,0.009,0.087l-0.006,0.001l-0.074,0.322C30.107,40.757,30.045,40.847,29.987,40.94z"/>
				<path fill="#BD790C" d="M28.139,42.236h0.003C28.147,42.231,28.144,42.232,28.139,42.236z"/>
				<path fill="#BD790C" d="M31.189,31.692l0.018,0.021C31.196,31.7,31.194,31.697,31.189,31.692z"/>
			</g>
		</g>
	</g>
</g>
<g opacity="0.5">
	<g>
		<g>
			<g>
				<g>
					<polygon fill="#BD790C" points="27.923,52.545 27.933,52.548 27.917,52.523 					"/>
					<path fill="#BD790C" d="M27.906,52.456l-0.016-0.007c0.001-0.001,0.045,0.073,0.044,0.074
						C27.978,52.531,27.878,52.449,27.906,52.456z"/>
					<path fill="#BD790C" d="M27.917,52.45c0.021-0.005-0.007-0.026-0.017-0.033C27.923,52.432,27.883,52.434,27.917,52.45z"/>
					<path fill="#BD790C" d="M27.896,51.515l0.002,0.003C27.9,51.516,27.899,51.516,27.896,51.515z"/>
					<path fill="#BD790C" d="M27.736,51.315l-0.028,0.003c0.059,0.031,0.017,0.089,0.047,0.128l-0.01-0.001
						c0.011,0.113,0.078,0.207,0.112,0.317c-0.003-0.001-0.011-0.002-0.015-0.003c0.01,0.005,0.029,0.008,0.027,0.015
						c-0.006,0.002-0.013,0-0.016-0.002c-0.042,0.029,0.038,0.066,0.005,0.086c0.006,0.006,0.025,0.007,0.04,0.001
						c0.024,0.088,0.032,0.185,0.074,0.279c-0.006,0.005-0.019,0.005-0.035,0.004c0.057,0.09,0.048,0.175-0.019,0.272
						c0.016,0.012,0.023-0.002,0.038,0.017c0.037-0.027-0.014-0.081,0.022-0.097l0.018,0.008c0.014-0.018-0.046-0.014-0.02-0.029
						c0.017-0.004,0.023,0.007,0.025,0.004c-0.003-0.043,0.019-0.086-0.023-0.127c0.042-0.007,0.007-0.044,0.045-0.058
						c-0.017-0.01-0.013-0.02-0.041-0.023c0.019-0.134-0.031-0.264-0.05-0.392c-0.085-0.048-0.004-0.135-0.045-0.2l0.008-0.002
						c-0.024-0.019-0.04-0.051-0.035-0.08l-0.037-0.017c0.036-0.178-0.053-0.333-0.065-0.504c-0.029-0.191-0.019-0.37-0.171-0.521
						c0.008-0.002,0.011-0.005,0.016-0.001c-0.03-0.048-0.016-0.103-0.047-0.146l0.007-0.002c-0.1-0.102-0.066-0.254-0.171-0.349
						c-0.037-0.143-0.095-0.3-0.164-0.44l0.015-0.005c-0.07-0.108-0.031-0.249-0.095-0.358c-0.008-0.134-0.171-0.22-0.17-0.356
						c0.034-0.061-0.042-0.096-0.093-0.182c0.015-0.017,0.05-0.026,0.097-0.018c0.209,0.07,0.307-0.13,0.347-0.28
						c0.13-0.077,0.119-0.256,0.262-0.324c-0.014-0.083,0.13-0.084,0.15-0.157l-0.019-0.007c0.065,0.003-0.046-0.089,0.039-0.064
						l0.002,0.004c0.046,0.007-0.081-0.074-0.03-0.059l-0.019-0.012c0.001-0.018,0.023,0.009,0.037,0.001
						c0-0.005-0.036-0.019-0.02-0.022c0.083,0.036,0-0.044,0.092-0.004c-0.003,0.009,0.042,0.001,0.053,0.03
						c0.012-0.002,0.02-0.031-0.021-0.046c-0.041-0.02-0.074-0.045-0.113-0.043l0.029,0.016c-0.033-0.008-0.016-0.004-0.041-0.01
						c-0.013,0.018-0.058,0-0.083,0.006l0.003,0.001c0.031,0.026,0.004,0.029-0.005,0.034l-0.018-0.005
						c-0.037-0.012,0.058,0.055,0,0.021c-0.003,0.046-0.028,0.09-0.05,0.133c0.019,0.019-0.02,0.032,0.028,0.046
						c-0.055-0.016-0.083,0.01-0.089,0.021c-0.004-0.003-0.009-0.006-0.006-0.007c-0.076-0.015,0.042,0.06-0.047,0.035
						c0.051,0.036-0.04,0.027,0.015,0.077c-0.013-0.005-0.024-0.011-0.033-0.018c-0.023,0.038-0.068,0.063-0.092,0.09
						c0.026,0.057-0.063,0.045-0.019,0.112c-0.025,0.01-0.071,0.016-0.069,0.056l-0.005-0.008c-0.02,0.027-0.044,0.06-0.027,0.11
						c-0.058-0.044-0.057-0.023-0.083-0.029c0.009,0.043-0.033,0.055-0.04,0.1c-0.023-0.024-0.014,0.027-0.042-0.011
						c0.006,0.107-0.15,0.144-0.321,0.169c0,0.033,0,0.071,0,0.113l-0.005-0.003c0.041,0.033,0.114,0.064,0.156,0.079
						c-0.003,0.002-0.012,0.002-0.013-0.002c0.018,0.022-0.018,0.062,0,0.086c-0.008,0.002-0.008,0.002-0.016,0.002
						c0.027,0.011-0.023,0.051,0.02,0.06l-0.012,0.005l0.022,0.008c-0.015,0.005-0.038,0.013-0.036,0.004
						c0.044,0.171,0.182,0.315,0.229,0.491l-0.016-0.001l0.037,0.024c-0.008,0.003-0.012,0.002-0.016,0.002
						c-0.011,0.051,0.046,0.081,0.053,0.124c-0.008,0.003-0.024,0.001-0.031,0.01c0.052,0.017-0.038,0.066,0.053,0.054
						c-0.003,0.003-0.022,0.011-0.03,0.01c0.057,0.075,0.084,0.164,0.097,0.255c0.101,0.047,0.056,0.149,0.141,0.205l-0.016,0.005
						c0.084,0.08,0.057,0.201,0.098,0.299c0.006,0.043,0.033,0.066,0.046,0.108l-0.02,0.007c0.095,0.05-0.024,0.168,0.079,0.22
						l-0.028,0.002c0.045,0-0.002,0.049,0.067,0.025l-0.018,0.019c0.107,0.025-0.019,0.104,0.058,0.149l-0.018,0.001
						c0.017,0.013,0.033,0.029,0.021,0.046c-0.003-0.001-0.008,0.001-0.013-0.002c-0.054,0.068,0.037,0.107,0.046,0.163
						l-0.033,0.001c0.043,0.018,0.02,0.075,0.045,0.105l-0.015,0.002l0.025,0.013l-0.03,0.007
						C27.687,51.234,27.722,51.271,27.736,51.315z"/>
					<path fill="#BD790C" d="M27.854,51.772L27.854,51.772C27.852,51.771,27.852,51.771,27.854,51.772z"/>
					<path fill="#BD790C" d="M27.641,47.567l0.008-0.002C27.644,47.562,27.643,47.566,27.641,47.567z"/>
				</g>
			</g>
		</g>
	</g>
</g>
<g opacity="0.5">
	<g>
		<g>
			<g>
				<g>
					<polygon fill="#BD790C" points="28.439,55.358 28.451,55.376 28.436,55.314 					"/>
					<path fill="#BD790C" d="M28.551,55.558l0.008-0.033c-0.08-0.167-0.052-0.121-0.115-0.236c0.006,0.029,0.012,0.097,0.034,0.166
						c0.004-0.011-0.011-0.081,0.003-0.063c0.015,0.052,0.004,0.051,0.021,0.118c0.034,0.048-0.004-0.047,0.021-0.03L28.551,55.558z
						"/>
					<path fill="#BD790C" d="M28.5,55.378c0.012,0.03,0.024,0.06,0.033,0.084C28.522,55.432,28.512,55.393,28.5,55.378z"/>
					<path fill="#BD790C" d="M28.5,55.358c0.01,0.002,0.029,0.062,0.034,0.07l-0.043-0.111L28.5,55.358z"/>
					<path fill="#BD790C" d="M28.534,55.35l-0.002-0.012C28.521,55.323,28.528,55.336,28.534,55.35z"/>
					<path fill="#BD790C" d="M28.542,55.331c-0.026-0.033-0.015-0.012-0.01,0.008l0.005,0.006c0.022,0.027,0.063,0.103,0.042,0.088
						c0,0.021-0.04-0.053-0.021,0l0.044,0.054C28.615,55.468,28.557,55.36,28.542,55.331z"/>
					<path fill="#BD790C" d="M28.534,55.35l-0.001,0.006C28.542,55.368,28.539,55.36,28.534,55.35z"/>
					<polygon fill="#BD790C" points="28.514,55.348 28.518,55.366 28.535,55.398 					"/>
					<path fill="#BD790C" d="M28.56,55.308c0.066,0.095-0.021,0.004,0.027,0.078c0.007-0.011,0.064,0.05,0.1,0.104l-0.009-0.039
						C28.655,55.413,28.597,55.348,28.56,55.308z"/>
					<path fill="#BD790C" d="M28.761,55.521c-0.005-0.009-0.008-0.015-0.009-0.018C28.753,55.508,28.755,55.513,28.761,55.521z"/>
					<path fill="#BD790C" d="M28.688,55.319l0.053,0.109c-0.022-0.03-0.047-0.057-0.05-0.071c-0.021-0.002,0.026,0.055,0.008,0.055
						c-0.072-0.08,0.011-0.021-0.057-0.089c-0.004,0.008-0.009,0.02,0.043,0.095l-0.056-0.049l0.077,0.091
						c0.026,0.021-0.049-0.08,0.006-0.02c0.034,0.038,0.035,0.05,0.039,0.062c-0.008-0.025,0.081,0.052,0.089,0.023
						C28.85,55.5,28.719,55.369,28.688,55.319z"/>
					<polygon fill="#BD790C" points="28.78,55.412 28.814,55.444 28.77,55.4 					"/>
					<path fill="#BD790C" d="M28.698,55.278l0.041,0.063c-0.008-0.007-0.026-0.023-0.043-0.037c0.019,0.02,0.05,0.054,0.066,0.07
						c0.083,0.069-0.007-0.04-0.015-0.059c0.051,0.015,0.042,0.04,0.122,0.101c-0.007,0.004-0.025-0.013-0.039-0.011
						c0.102,0.07,0.031-0.021,0.015-0.048c-0.01-0.005-0.035-0.026-0.031-0.016l-0.02-0.031
						C28.723,55.262,28.703,55.253,28.698,55.278z"/>
					<path fill="#BD790C" d="M28.677,55.298c-0.001-0.01,0.006-0.006,0.017,0.005C28.673,55.284,28.657,55.27,28.677,55.298z"/>
					<path fill="#BD790C" d="M28.846,55.352c-0.006-0.004-0.005-0.001-0.001,0.006C28.849,55.36,28.851,55.36,28.846,55.352z"/>
					<path fill="#BD790C" d="M28.745,55.275l0.016-0.001l-0.041-0.03C28.723,55.249,28.725,55.258,28.745,55.275z"/>
					<path fill="#BD790C" d="M29.125,55.006c-0.038-0.021-0.059-0.027-0.056-0.016c-0.05-0.029-0.035-0.034-0.062-0.055
						c-0.038-0.009-0.06-0.033-0.11-0.059c-0.01,0.008,0.053,0.05,0.033,0.054c-0.014-0.008-0.037-0.02-0.054-0.029
						c0.024,0.031,0.058,0.082,0.007,0.069c-0.027,0.001-0.009,0.024,0.004,0.052c-0.056,0.028-0.032,0.112-0.114,0.126l0.085,0.074
						c-0.046-0.032-0.009,0.012-0.066-0.034c0.013,0.006,0.006-0.004,0.007-0.008c-0.087-0.051-0.015,0.031-0.052,0.021
						c0.017,0.012,0.095,0.071,0.105,0.086c-0.096-0.081-0.011,0.017-0.124-0.072c-0.037-0.012,0.083,0.071,0.058,0.071
						c0.055,0.05,0.037,0.011,0.082,0.044c0.042,0.044-0.029-0.004,0.03,0.046c0.047,0-0.039-0.14-0.049-0.194l0.054,0.045
						c-0.025-0.046-0.012-0.074,0.091-0.024c-0.057-0.033,0.047-0.007-0.081-0.087c0.032,0.015,0.028,0.011,0.042,0.011L28.917,55.1
						c0.007-0.008,0.067,0.033,0.07,0.021c-0.058-0.028-0.07-0.046-0.113-0.078c0.069,0.025,0.13,0.048,0.188,0.068
						c-0.019-0.009-0.04-0.02-0.065-0.032c0.024,0.005-0.029-0.026-0.047-0.04c0.001-0.008,0.072,0.036,0.108,0.059
						c0.03,0-0.103-0.087-0.051-0.069l-0.06-0.03c-0.005-0.021,0.063,0.005,0.051-0.021c0.083,0.039,0.062,0.052,0.093,0.077
						c0.018,0.007,0.026,0.003,0.053,0.016c-0.037-0.03-0.086-0.071-0.12-0.101C29.111,55.029,29.116,55.007,29.125,55.006z"/>
					<path fill="#BD790C" d="M29.143,55.07c0.011,0.009,0.021,0.017,0.029,0.022c-0.004-0.004-0.009-0.009-0.004-0.009
						C29.158,55.079,29.15,55.074,29.143,55.07z"/>
					<path fill="#BD790C" d="M29.125,55.006l0.01,0.005C29.129,55.006,29.127,55.005,29.125,55.006z"/>
					<polygon fill="#BD790C" points="28.876,54.97 28.883,54.971 28.886,54.97 					"/>
					<path fill="#BD790C" d="M29.129,55.137l-0.068-0.026C29.087,55.125,29.108,55.137,29.129,55.137z"/>
					<path fill="#BD790C" d="M29.008,55.187c0.009,0.007,0.025,0.02,0.042,0.032C29.057,55.215,29.04,55.202,29.008,55.187z"/>
					<polygon fill="#BD790C" points="29.167,55.062 29.155,55.041 29.142,55.028 					"/>
					<path fill="#BD790C" d="M28.976,54.68c-0.076-0.025-0.039,0.01-0.058,0.014c0.027,0.04,0.154,0.081,0.153,0.105l-0.145-0.077
						c-0.002,0.024-0.046,0.035,0.071,0.119c-0.019-0.008-0.042-0.016-0.06-0.032c-0.002,0.017,0.202,0.117,0.144,0.109
						c-0.081-0.064-0.088-0.04-0.175-0.093l-0.009-0.008c0.003,0.016,0.042,0.056,0.033,0.061c0.037,0.021,0.097,0.045,0.095,0.058
						c0.01,0,0.05,0.024,0.087,0.045c-0.035-0.033-0.006-0.024-0.052-0.058c0.052,0.021,0.014,0.013,0.064,0.032l-0.04-0.032
						c0.015-0.001,0.045,0.032,0.06,0.027c-0.027-0.016-0.054-0.04-0.043-0.045l0.015,0.012c-0.016-0.017,0.012-0.013-0.07-0.052
						l0.084,0.035l-0.055-0.027c0.03-0.005,0.165,0.057,0.107,0c-0.019-0.003-0.046-0.023-0.055-0.031
						c-0.043-0.011,0.036,0.032,0.039,0.045c-0.056-0.027-0.114-0.075-0.152-0.083c0.071,0.023,0.002-0.023,0.143,0.042
						c0.016-0.01-0.05-0.049-0.011-0.046l0.021,0.011c-0.09-0.048,0.047,0.01-0.042-0.047l-0.024-0.003
						c-0.038-0.02-0.037-0.023-0.042-0.031c0.015,0.007,0.015,0.007,0.033,0.015c-0.066-0.034-0.069-0.054-0.088-0.065
						c-0.014,0.001,0.037,0.035,0.05,0.051C29.018,54.708,28.962,54.681,28.976,54.68z"/>
					<path fill="#BD790C" d="M29.148,54.938l-0.029-0.021C29.123,54.921,29.132,54.928,29.148,54.938z"/>
					<path fill="#BD790C" d="M29.121,54.678c0.019-0.002,0.056,0.029,0.09,0.035c-0.042-0.03-0.1-0.035-0.166-0.076
						c0.043,0.014-0.023-0.027-0.023-0.031c0.038,0.022,0.127,0.062,0.147,0.069c-0.023-0.016,0.024-0.002,0.029-0.007
						c-0.062-0.012-0.028-0.026-0.094-0.043c-0.053-0.025-0.085-0.056-0.042-0.042c0.038,0.019,0.028,0.019,0.028,0.022
						c0.071,0.037,0.043,0.01,0.11,0.038c-0.094-0.06-0.068-0.097-0.236-0.158c-0.033-0.01,0.005,0.012,0.01,0.02
						c0.039,0.002,0.085,0.038,0.114,0.053c-0.028-0.006,0.018,0.027-0.039-0.002l-0.057-0.036c-0.044,0.015-0.05,0.058-0.042,0.102
						l0.01-0.013c0.043,0.022,0.042,0.03,0.061,0.046l0.109,0.043c-0.01,0.001,0.004,0.012-0.034-0.007
						c0.042,0.027,0.07,0.038,0.108,0.052c0.013,0.021-0.029,0.002,0.036,0.044c0.095,0.023-0.065-0.05,0.021-0.035L29.121,54.678z"
						/>
					<polygon fill="#BD790C" points="29.16,54.746 29.109,54.715 29.132,54.735 					"/>
					<path fill="#BD790C" d="M28.931,54.626c0.023,0.012,0.033,0.018,0.056,0.029C29.006,54.655,28.973,54.64,28.931,54.626z"/>
					<path fill="#BD790C" d="M29.21,54.635l-0.013-0.02l-0.024-0.003C29.196,54.624,29.205,54.631,29.21,54.635z"/>
					<path fill="#BD790C" d="M28.965,54.434c0.004,0.02,0.052,0.049-0.01,0.041c0.066,0.039,0.133,0.055,0.195,0.087
						c0.02-0.002-0.1-0.054-0.119-0.072c0.062,0.023-0.008-0.019,0.01-0.021C29.016,54.458,28.987,54.445,28.965,54.434z"/>
					<path fill="#BD790C" d="M29.219,54.484c0.004-0.007-0.041-0.034-0.009-0.027c0.038,0.018,0.05,0.027,0.038,0.027
						c0.088,0.034-0.01-0.014,0.051,0.004c-0.01-0.004-0.026-0.007-0.044-0.018c0.029-0.01-0.066-0.04-0.006-0.044
						c-0.022-0.014-0.021-0.017-0.079-0.04c0.079,0.017,0.076,0.023,0.147,0.033c-0.034-0.013-0.113-0.042-0.186-0.07
						c0.111,0.02-0.004-0.029,0.078-0.013c0.003,0.003,0.021,0.013,0.009,0.013c0.103,0.04-0.013-0.021,0.01-0.021l0.086,0.036
						c-0.01-0.013-0.062-0.05,0.005-0.034l0.043,0.021c-0.059-0.047-0.019-0.058-0.044-0.088l0.057,0.013
						c-0.057-0.05-0.04,0.011-0.163-0.058c0.162,0.061-0.047-0.032,0.021-0.021c0.066,0.019,0.028,0.026,0.104,0.048
						c-0.081-0.035-0.021-0.017-0.042-0.032c0.077,0.031,0.016-0.011,0.102,0.027l-0.134-0.08c0.045,0.013,0.041,0.003,0.032-0.007
						c-0.006,0.013-0.114-0.048-0.156-0.047c0.029,0.035,0.041,0.082-0.01,0.093c0.105,0.045-0.008,0.017,0.077,0.056l-0.098-0.036
						c0.016,0.026,0.06,0.02,0.097,0.039c0.011,0.014-0.055-0.006-0.093-0.022c-0.011,0.011,0.028,0.014,0.083,0.043l-0.12-0.039
						c0.021,0.053,0.077,0.137-0.007,0.152l0.074,0.027c-0.048,0.003,0.146,0.103-0.016,0.054l0.059,0.032
						c-0.035-0.016-0.107-0.048-0.156-0.07c0.022,0.017-0.007,0.01,0.012,0.025l0.039,0.005c0.058,0.034,0.017,0.025-0.037,0.004
						c0.066,0.047,0.128,0.046,0.19,0.069c-0.124-0.079,0.14,0.035,0.093-0.01C29.288,54.498,29.257,54.501,29.219,54.484z"/>
					<path fill="#BD790C" d="M29.01,54.424l0.018,0.011C29.024,54.433,29.019,54.429,29.01,54.424z"/>
					<path fill="#BD790C" d="M29.296,54.154c0-0.002,0-0.004-0.002-0.008C29.276,54.137,29.288,54.145,29.296,54.154z"/>
					<polygon fill="#BD790C" points="29.041,54.468 29.042,54.469 29.041,54.468 					"/>
					<polygon fill="#BD790C" points="29.212,54.557 29.217,54.552 29.184,54.539 					"/>
					<path fill="#BD790C" d="M29.411,54.128l-0.039-0.015L29.411,54.128z"/>
					<path fill="#BD790C" d="M29.495,53.973l-0.003,0.003C29.498,53.977,29.498,53.975,29.495,53.973z"/>
					<path fill="#BD790C" d="M29.548,53.549c-0.021-0.019-0.04-0.041-0.101-0.069l0.039,0.014c-0.017-0.012-0.074-0.051-0.149-0.062
						l0.034,0.015c0.054,0.032-0.068-0.012-0.097-0.009c0.014,0.019,0.16,0.073,0.122,0.073c0.002,0.007-0.037-0.007-0.066-0.019
						c-0.015,0.008,0.098,0.05,0.11,0.062c-0.299-0.095,0.07,0.061-0.125,0.016c0.021,0.019-0.01,0.023,0.044,0.057
						c-0.072-0.032-0.01,0.011-0.093-0.021c0.172,0.062-0.089,0.013,0.126,0.089c-0.067-0.003,0.014,0.005-0.044,0.009
						c-0.024-0.008-0.023-0.012-0.027-0.015c-0.048-0.007,0.088,0.045-0.014,0.018c-0.021,0.012,0.058,0.023,0.113,0.053
						c-0.031,0.009-0.06-0.006-0.152-0.027c0.103,0.037,0.049,0.03,0.1,0.058c0.006,0,0.03-0.005,0.067,0.017
						c-0.024,0.015,0.062,0.039,0.083,0.068c-0.118-0.029,0.003-0.021-0.093-0.034c-0.049-0.031-0.041-0.038-0.122-0.073
						c-0.011,0.014,0,0.039,0.042,0.074c-0.019,0.004-0.052-0.024-0.065-0.02c-0.056-0.001,0.107,0.067,0.052,0.063l-0.058-0.023
						c0.075,0.036-0.028,0.024,0.009,0.056c0.03,0.009,0.05,0.015,0.069,0.023c-0.147-0.053,0.068,0.051-0.042,0.029
						c0.093,0.032,0.14,0.067,0.146,0.081c-0.027-0.006-0.065-0.021-0.09-0.03c0.061,0.004-0.096-0.053-0.134-0.081
						c0.044,0.028-0.012,0.027,0.052,0.062l-0.072-0.03c-0.016,0.01,0.161,0.073,0.085,0.062l-0.053-0.021
						c-0.004,0.033-0.112,0.033-0.002,0.104c0.043,0.019,0.151,0.046,0.186,0.058c-0.032-0.029-0.107-0.067-0.141-0.093l0.083,0.031
						c-0.057-0.024-0.085-0.05-0.133-0.06c-0.04-0.025,0.076,0.021,0.032-0.008c0.086,0.036,0.095,0.04,0.167,0.07l-0.04-0.025
						c0.033,0.016,0.032,0.006,0.065,0.021c-0.1-0.057,0.05-0.009,0.009-0.045l-0.019,0.005c-0.049-0.019-0.042-0.022-0.054-0.031
						c0.07,0.02,0.062,0.014,0.095,0.016c-0.035-0.022-0.122-0.059-0.117-0.069c0.092,0.036,0.057,0.001,0.136,0.027
						c-0.092-0.036-0.025-0.032-0.079-0.054c-0.017-0.012-0.004-0.017,0.046,0.001c0.002,0.002,0.01,0.008,0.014,0.011l0.005-0.005
						c0.01,0.004,0.018,0.008,0.02,0.008c0.004-0.004-0.063-0.028-0.015-0.019c0.024,0.009,0.022,0.013,0.031,0.019
						c0.021-0.008-0.132-0.073-0.043-0.055c-0.043-0.018-0.042-0.035-0.142-0.066c0.037,0.009,0.114,0.037,0.104,0.021
						c-0.081-0.036,0.035-0.002-0.016-0.029c0.084,0.038,0.023,0.011,0.104,0.048c0.038,0.004-0.071-0.047-0.051-0.055
						c0.02,0.006,0.045,0.013,0.065,0.02c-0.027-0.016-0.094-0.045-0.022-0.026l-0.06-0.02c0.033,0.001,0.019-0.018,0.087-0.006
						l-0.109-0.05c0.125,0.025,0.025-0.032-0.073-0.079c0.007-0.004,0.03-0.005,0.056,0.003c0.008,0.005,0.024,0.013,0.039,0.021
						c0.007-0.007,0.075,0.004-0.018-0.032c-0.026-0.018,0.067,0.016,0.084,0.014c-0.126-0.061,0.115-0.019-0.085-0.091
						c-0.003,0.007-0.048,0.007-0.044,0.023c-0.023-0.012-0.063-0.021-0.066-0.028c-0.005-0.017,0.072,0.001,0.043-0.023
						l0.128,0.044C29.657,53.628,29.358,53.507,29.548,53.549z"/>
					<path fill="#BD790C" d="M29.488,53.722l0.069,0.013l-0.056-0.018C29.509,53.723,29.508,53.726,29.488,53.722z"/>
					<path fill="#BD790C" d="M29.501,53.717c-0.006-0.004-0.015-0.009-0.024-0.015c-0.002,0.001,0,0.004,0.01,0.01L29.501,53.717z"
						/>
					<path fill="#BD790C" d="M29.54,53.502c0.006,0,0.018-0.001,0.004-0.01C29.528,53.491,29.521,53.495,29.54,53.502z"/>
					<polygon fill="#BD790C" points="29.504,53.479 29.482,53.477 29.497,53.483 					"/>
					<path fill="#BD790C" d="M29.48,53.156l-0.074-0.039c0.041,0.01-0.002-0.022,0.065,0.003c-0.091-0.036,0.006-0.03-0.132-0.062
						c0.034,0.061-0.065,0.1,0.04,0.189l-0.051-0.025c0.099,0.061-0.13,0.001,0.076,0.089l-0.108-0.036
						c-0.035,0.003,0.15,0.072,0.031,0.05l0.045,0.013c-0.001,0.004-0.022-0.001-0.023,0.002l0.021,0.005
						c0.041,0.023,0.034,0.027,0.001,0.026c-0.035-0.01-0.014-0.009-0.022-0.015c-0.037-0.007,0.035,0.024,0.032,0.031
						c-0.032-0.004-0.05-0.017-0.064-0.021c0.042,0.036-0.076,0.01,0.082,0.076c0.029,0.011,0.057,0.013,0.069,0.024
						c0.056,0.002-0.005-0.029-0.045-0.057l-0.001,0.004c-0.155-0.061,0.038,0.003-0.025-0.034c0.062,0.024,0.06,0.031,0.093,0.045
						c0.127,0.019-0.083-0.057,0.076-0.021l0.004,0.003c0.016,0.002-0.012-0.013-0.025-0.021c-0.021-0.005-0.032-0.003-0.048-0.005
						c-0.013-0.009-0.082-0.033-0.111-0.044c0.071,0.017-0.032-0.017,0.005-0.014c0.065,0.018,0.057,0.024,0.091,0.038l-0.042-0.022
						c-0.001-0.01,0.074,0.014,0.11,0.02c-0.047-0.022-0.036-0.006-0.104-0.033c0.083,0.016,0.073-0.031,0.016-0.068
						c0.007,0.009,0.069,0.023,0.056,0.027c0.016,0.002-0.015-0.019-0.065-0.033c-0.04-0.026-0.004-0.033,0.045-0.031l-0.051-0.012
						c-0.081-0.035,0.07-0.007,0.026-0.04l-0.001,0.001c-0.009-0.01-0.129-0.05-0.101-0.054
						C29.427,53.135,29.42,53.139,29.48,53.156z"/>
					<path fill="#BD790C" d="M29.383,53.06l0.068,0.025c0.018-0.002-0.07-0.035-0.115-0.047c0.014,0.008-0.019,0.005,0.021,0.018
						C29.367,53.058,29.392,53.065,29.383,53.06z"/>
					<path fill="#BD790C" d="M29.405,52.938c-0.016-0.005-0.042-0.014-0.061-0.02c0.002,0.026,0.021,0.065-0.037,0.06
						c-0.022,0.003,0.082,0.034,0.103,0.052l-0.072-0.015c0.043,0.019-0.039,0.014,0.079,0.041c0.01,0.002-0.053-0.021-0.031-0.021
						l0.04,0.013l-0.011-0.016l0.049,0.019c0.075,0.005-0.147-0.054-0.095-0.06l0.101,0.028c0.009-0.011-0.023-0.027,0.041-0.021
						c0,0-0.05-0.014-0.03-0.006c-0.006,0-0.047-0.008-0.077-0.019c-0.073-0.041,0.059,0.021,0.104,0.019
						c-0.064-0.036-0.113-0.083-0.03-0.069c-0.063-0.009-0.125-0.039-0.116-0.046c0.037,0.006,0.059,0.02,0.088,0.029
						c0.012-0.001,0.039,0.002,0.024-0.006c-0.057-0.01-0.131-0.034-0.163-0.052C29.244,52.851,29.423,52.919,29.405,52.938z"/>
					<path fill="#BD790C" d="M29.322,52.908c0.003,0.003,0.011,0.007,0.022,0.011v-0.01L29.322,52.908z"/>
				</g>
			</g>
		</g>
	</g>
</g>
<path fill="#FFFFFF" d="M32.393,31.629"/>
<g>
	<path fill="#A5A5A5" d="M32.464,31.629c0,0-9.197-6.285-10.422-13.49c-1.227-7.204,3.223-15.441,5.595-16.048
		c0,0,2.503-1.641,3.755,8.997c0.46,3.91,3.986,5.365,4.293,8.585v10.421c0,0,3.522-1.073,9.195,0.308c0,0,1.994-7.051,8.432-7.972
		c7.559-1.08,11.947-3.719,13.491-4.446c2.603-1.226,3.984,0.92-1.229,6.746c-5.211,5.825-9.045,6.438-17.015,6.897
		c0,0,1.379,2.911,1.072,5.058c0,0-1.379-3.065-4.157-1.455c0,0-2.434,2.833,0.939,5.287c0,0-3.682-1.381-3.833,2.76
		c0,0-1.579,0.919-2.245,3.223l-4.194-1.842c0,0-0.716,6.104,0.396,12.006c0,0-6.269-1.077-7.496-7.196
		c-0.35-1.736,0.478-4.252,1.551-6.934c0.243-0.608,0.723-2.629,1.305-5.197C32.096,36.472,31.725,33.257,32.464,31.629z"/>
	<g>
		<g>
			<g>
				<polygon points="32.464,31.629 32.433,31.72 32.353,31.955 				"/>
				<path d="M32.075,33.211c0.004-0.037,0.004-0.035,0.008-0.073c0,0,0.157-0.949,0.187-0.94
					C32.162,32.612,32.113,32.933,32.075,33.211z"/>
				<path d="M32.047,33.493C32.007,33.863,32,34.018,32,34.104C31.993,33.974,32.06,33.413,32.047,33.493z"/>
				<path d="M36.03,51.331c0.002,0.035,0.004,0.081,0.006,0.115C36.033,51.388,36.031,51.352,36.03,51.331z"/>
				<path d="M37.859,45.398l0.09,0.018c-0.369-0.156-0.747-0.317-1.132-0.48l-0.591-0.258l-0.083-0.037
					c-0.028-0.012-0.013,0.049-0.022,0.069l-0.019,0.174l-0.029,0.32c-0.077,0.857-0.129,1.729-0.145,2.572l-0.002-0.114
					c-0.057,2.141-0.023,4.205,0.215,6.246c0.035,0.513,0.126,1.019,0.205,1.526l0.119,0.764l0.06,0.382
					c0,0.026,0.022,0.076,0.002,0.083l-0.095-0.019l-0.189-0.043c-1.005-0.245-1.98-0.646-2.901-1.177
					c0.057,0.028,0.083,0.041,0.141,0.07c-0.185-0.09-0.38-0.207-0.571-0.336c-0.048-0.035,0.058,0.03,0.12,0.069
					c-0.372-0.25-0.916-0.627-1.363-1.053c-0.47-0.401-0.823-0.863-0.998-1.079c-0.147-0.205-0.218-0.292-0.143-0.173
					c-0.516-0.658-0.869-1.44-1.173-2.238c-0.137-0.404-0.231-0.826-0.339-1.243l-0.073-0.646l0.016-0.65
					c0.152-1.732,0.752-3.388,1.353-4.966c0.062-0.151,0.075-0.178,0.062-0.134c0.498-1.359,0.823-2.807,1.165-4.257
					c0.149-0.728,0.409-1.444,0.406-2.192c0.022-0.745,0.004-1.491,0.042-2.231c0.004-0.114-0.015,0.302-0.003,0.01
					c-0.05,0.951-0.002,1.746-0.06,2.606l0.008-0.11c-0.085,0.618,0.027,0.131-0.122,0.765c-0.062,0.25,0.012-0.063-0.016,0.053
					c-0.325,1.294-0.592,2.666-0.952,3.868c-0.048,0.167-0.144,0.496-0.25,0.858c-0.119,0.362-0.282,0.734-0.373,0.963
					c-0.115,0.323-0.221,0.619-0.277,0.776c-0.395,1.1-0.76,2.225-0.934,3.398c-0.097,0.584-0.114,1.187-0.026,1.779
					c0.126,0.579,0.248,1.169,0.492,1.716c0.847,2.256,2.752,4.007,4.942,4.975c0.52,0.215,1.074,0.421,1.666,0.574
					c0.158,0.041,0.266,0.069,0.503,0.114l-0.077-0.517c-0.046-0.31-0.092-0.624-0.139-0.94c-0.108-0.633-0.162-1.284-0.213-1.942
					c-0.066-0.656-0.111-1.32-0.13-1.984c0.001-0.019,0.003-0.016,0.005,0.002c-0.062-0.863-0.069-2.127-0.043-3.16l0.007-0.876
					c0.032-0.697,0.078-1.396,0.144-2.094l0.046-0.463c0.056,0.009,0.256,0.11,0.409,0.174l0.965,0.429l1.936,0.857l0.485,0.214
					l0.261,0.115l0.09,0.04c0.015,0.005,0.031,0.016,0.044,0.017l0.017-0.047l0.063-0.174c0.122-0.329,0.224-0.666,0.4-0.971
					c0.31-0.627,0.735-1.202,1.257-1.669c0.134-0.112,0.266-0.228,0.41-0.325c0.02-0.027,0.111-0.05,0.126-0.105l0.016-0.159
					l0.024-0.262c0.021-0.35,0.109-0.693,0.225-1.019c0.232-0.649,0.745-1.21,1.425-1.378c0.666-0.188,1.397-0.101,2.051,0.113
					l0.07-0.129c-0.504-0.396-0.982-0.833-1.312-1.378c-0.397-0.674-0.527-1.481-0.351-2.223c0.077-0.373,0.228-0.727,0.412-1.056
					c0.093-0.164,0.195-0.323,0.311-0.469c0.088-0.071,0.314-0.161,0.464-0.241c0.681-0.293,1.475-0.302,2.105,0.058
					c0.639,0.341,1.12,0.95,1.439,1.584l0.176,0.347l0.044-0.378c0.11-0.956-0.039-1.897-0.263-2.805
					c-0.115-0.455-0.259-0.9-0.418-1.341c-0.087-0.218-0.163-0.439-0.259-0.654c-0.087-0.236-0.142-0.153,0.109-0.184
					c1.862-0.128,3.751-0.26,5.665-0.607c-0.008,0.009,0.049,0.003-0.13,0.038c0.499-0.09,0.986-0.179,1.466-0.266
					c0.478-0.1,0.935-0.258,1.395-0.381c0.938-0.207,1.768-0.678,2.647-1.047l-0.002,0.009c2.086-1.154,3.92-2.83,5.581-4.613
					c0.806-0.914,1.6-1.837,2.256-2.839c0.635-0.996,1.282-2.046,1.344-3.212c-0.005-0.336-0.056-0.741-0.371-0.96
					c-0.299-0.217-0.685-0.231-1.038-0.186c-0.718,0.122-1.342,0.524-1.996,0.833c-1.3,0.659-2.652,1.277-4.056,1.792
					c-2.797,1.066-5.767,1.727-8.657,2.206l0.011-0.018c-2.328,0.403-4.376,1.752-5.825,3.546c-0.729,0.896-1.336,1.891-1.816,2.947
					c-0.124,0.262-0.233,0.532-0.34,0.802l-0.146,0.412l-0.055,0.168c-0.049-0.001-0.084-0.015-0.165-0.029
					c-0.57-0.114-1.143-0.229-1.718-0.343c-0.596-0.093-1.2-0.157-1.806-0.235c-0.608-0.039-1.223-0.071-1.838-0.078
					c-0.616,0.019-1.235,0.024-1.851,0.103c-0.31,0.023-0.615,0.075-0.921,0.126c-0.154,0.022-0.306,0.052-0.457,0.089
					c-0.144,0.013-0.332,0.112-0.389,0.058c-0.019-2.442-0.036-4.955-0.015-7.374c0.005-0.754,0.011-1.561,0.017-2.397
					c0.064-0.842-0.201-1.705-0.605-2.454c-0.836-1.5-2.096-2.686-2.752-3.947c-0.352-0.632-0.636-1.302-0.792-2.003
					c-0.14-0.702-0.211-1.419-0.308-2.129c-0.198-1.419-0.442-2.832-0.844-4.206c-0.191-0.688-0.441-1.362-0.75-2.008
					c-0.324-0.615-0.738-1.307-1.46-1.501c-0.74-0.058-1.363,0.465-1.847,0.965c-0.51,0.509-0.922,1.106-1.317,1.71
					c-1.42,2.262-2.357,4.817-2.836,7.417c-0.246,1.3-0.37,2.621-0.321,3.931c0.012,1.311,0.229,2.611,0.639,3.837
					c0.375,1.171,1.013,2.304,1.694,3.438c0.732,1.104,1.559,2.188,2.48,3.198l-0.062-0.076c0.645,0.739,1.518,1.57,1.954,1.998
					l-0.074-0.071c0.375,0.358,0.893,0.809,1.128,1.02l0.065,0.053c0.428,0.373,0.091,0.079,0.422,0.367
					c0.132,0.11,0.069,0.058,0.346,0.288c0.056,0.062,1.198,0.965,1.237,0.986c-0.275-0.206,0.43,0.324-0.187-0.14
					c0.171,0.139,1.023,0.756,0.95,0.696c0.075,0.05,0.413,0.284-0.113-0.08l-0.104-0.075c-0.167-0.122-0.112-0.082-0.195-0.142
					c-0.669-0.501-0.753-0.576-1.22-0.952c0.004,0.004,0.009,0.008,0.002,0.002c-0.321-0.255-0.753-0.621-0.996-0.837l-0.097-0.086
					c-0.151-0.127-0.712-0.63-0.521-0.463c-1.259-1.139-2.626-2.536-3.791-4.035c-0.185-0.194-0.864-1.167-0.631-0.824
					c-0.126-0.202-0.403-0.584-0.655-0.99c-0.243-0.413-0.487-0.829-0.619-1.055c0.014,0.023,0.025,0.041,0.065,0.105
					c-0.239-0.448-0.354-0.727-0.491-0.985c-0.137-0.259-0.262-0.516-0.4-0.972c-0.027-0.068-0.199-0.467-0.327-0.929
					c-0.11-0.461-0.227-0.949-0.297-1.243c-0.009-0.117-0.009-0.157,0-0.115c-0.275-1.692-0.195-3.603,0.04-5.029
					c0.15-1.23,0.617-2.931,0.942-3.944c0.304-0.827,0.832-2.156,1.425-3.235l-0.05,0.108c0.64-1.229,1.648-2.664,2.4-3.244
					c0.18-0.096,0.372-0.262,0.625-0.338l0.186-0.077c0.108-0.05,0.125-0.056,0.201-0.073c0.126-0.031,0.261-0.012,0.39,0.022
					c0.413,0.107,0.908,0.632,1.244,1.303c0.347,0.667,0.622,1.443,0.816,2.122c0.042,0.213,0.309,1.125,0.278,1.208
					c0.235,0.962,0.422,1.998,0.575,3.072c0.153,1.064,0.246,2.217,0.729,3.263c0.913,2.105,2.867,3.619,3.475,5.635l-0.02-0.057
					c0.211,0.502,0.304,1.109,0.312,1.678c-0.003,0.055-0.01,0.049-0.01-0.069c-0.009,0.775-0.017,1.502-0.026,2.276
					c-0.006-0.006-0.006-0.006-0.013-0.132c0.018,0.727-0.034,1.503-0.003,2.361l-0.011,0.048l0.015,0.545
					c-0.014-0.013-0.035-0.034-0.03-0.326c-0.001,0.833-0.002,1.668-0.004,2.507l0.001,1.26l0,0.632
					c0.007,0.219-0.014,0.371,0.016,0.777c0.433-0.12,0.522-0.124,0.755-0.179l0.621-0.099c0.415-0.059,0.835-0.088,1.254-0.126
					l1.266-0.036l1.269,0.054c0.842,0.07,1.691,0.153,2.526,0.311l1.253,0.249l0.381,0.076c0.077,0.01,0.062-0.131,0.099-0.19
					l0.052-0.157c0.07-0.2,0.142-0.4,0.223-0.596c0.641-1.571,1.544-3.054,2.73-4.269c0,0-0.168,0.183-0.164,0.188
					c0,0,0.917-0.944,0.94-0.919c-0.001,0.011-0.047,0.053-0.094,0.095c1.284-1.068,2.88-1.879,4.505-2.116
					c-0.007,0.009-0.245,0.075-0.021,0.037c1.189-0.263,1.941-0.286,2.525-0.482c0.057-0.005,0.099,0.007-0.022,0.036
					c3.332-0.675,6.656-1.815,9.725-3.333c0.634-0.318,1.262-0.723,1.953-0.958c0.349-0.104,0.723-0.165,1.077-0.08
					c0.359,0.092,0.592,0.434,0.616,0.799c0.077,0.742-0.257,1.475-0.587,2.139c-0.335,0.677-0.757,1.301-1.172,1.91l-0.004-0.021
					c-2.248,3.056-5.244,6.035-8.96,7.483c-0.767,0.29-1.443,0.438-2.1,0.648c-0.671,0.159-1.356,0.26-2.168,0.413l-0.044-0.012
					c-1.375,0.208-2.834,0.344-4.311,0.411l-1.154,0.067c0.076,0.377,0.263,0.693,0.376,1.048c0.241,0.696,0.467,1.397,0.604,2.109
					l-0.062-0.191c0.183,0.429,0.162,1.737,0.205,1.564l-0.046,0.511v0.054l0.015-0.002c-0.478-0.836-1.11-1.554-2.023-1.83
					c-0.453-0.136-0.965-0.111-1.453,0.062c-0.251,0.068-0.49,0.2-0.722,0.347c-0.169,0.221-0.314,0.471-0.439,0.743l0.059-0.148
					c-0.304,0.572-0.45,1.323-0.428,1.799c-0.005-0.073-0.003-0.043-0.012-0.193c-0.033,0.589,0.137,1.206,0.466,1.734
					c0.324,0.539,0.816,0.953,1.312,1.341l0.024-0.045c-0.854-0.27-1.843-0.324-2.627,0.125C43.79,40.609,44,40.487,44,40.487
					c-0.476,0.207-1.042,0.766-1.24,1.525l-0.133,0.568c-0.019,0.194-0.037,0.388-0.056,0.58c0.014,0.111-0.054,0.133-0.141,0.194
					c-0.077,0.054-0.151,0.11-0.22,0.172c-0.145,0.114-0.271,0.239-0.388,0.361l0.05-0.066c0,0-0.124,0.119-0.231,0.253
					c-0.106,0.134-0.213,0.269-0.213,0.269l-0.03-0.001c-0.27,0.35-0.504,0.719-0.685,1.11c-0.106,0.188-0.176,0.392-0.245,0.595
					l-0.106,0.302c-0.017,0.042-0.025,0.086-0.045,0.114l-0.121-0.052C39.418,46.074,38.646,45.739,37.859,45.398z"/>
				<path d="M33.032,55.228l0.016,0.011C33.092,55.266,33.071,55.252,33.032,55.228z"/>
				<path d="M30.666,30.244c0.062,0.051,0.114,0.094,0.166,0.137C30.809,30.362,30.718,30.287,30.666,30.244z"/>
			</g>
		</g>
	</g>
</g>
<path fill="#7F7F7F" d="M49.526,31.629c0,0,8.864-0.635,11.5-2.969c2.636-2.336,2.419-4.1,2.419-4.1s-2.272,3.125-6.87,4.368
	c-4.593,1.245-7.837,1.145-7.837,1.145L49.526,31.629z"/>
<path fill="#7F7F7F" d="M20.437,24.56"/>
<g>
	<path fill="#F2CDC1" d="M33.254,29.482c0,0-2.377-16.707-4.292-19.543c0,0-1.916-5.901-2.989-3.142
		c-1.073,2.758-2.199,6.003,0,13.947C26.97,24.348,33.254,29.482,33.254,29.482z"/>
	<path fill="#0F1019" d="M33.154,29.299c-0.486-3.242-1.025-6.478-1.647-9.696c-0.322-1.64-0.655-3.278-1.057-4.898
		c-0.201-0.81-0.406-1.621-0.66-2.413c-0.12-0.399-0.248-0.794-0.406-1.176c-0.131-0.398-0.334-0.749-0.525-1.107l-0.01-0.018
		l-0.006-0.013l0-0.002c-0.195-0.619-0.419-1.234-0.675-1.833c-0.261-0.593-0.539-1.194-0.952-1.688
		c-0.198-0.227-0.509-0.473-0.793-0.285c-0.258,0.187-0.391,0.508-0.506,0.809c-0.241,0.61-0.45,1.23-0.636,1.858
		c-0.156,0.633-0.336,1.269-0.396,1.92l-0.112,0.975c-0.023,0.326-0.012,0.654-0.02,0.981c-0.031,0.655,0.02,1.307,0.087,1.959
		l0.089,0.978l0.167,0.967c0.12,0.643,0.196,1.295,0.375,1.926l0.471,1.907c0.148,0.636,0.421,1.239,0.74,1.801
		c0.33,0.563,0.696,1.105,1.099,1.62c0.798,1.035,1.689,1.997,2.616,2.92C31.278,27.666,32.202,28.501,33.154,29.299z
		 M33.211,29.535c-1.006-0.845-1.971-1.733-2.898-2.663c-0.925-0.93-1.813-1.9-2.61-2.944c-0.401-0.52-0.768-1.066-1.097-1.636
		c-0.323-0.578-0.591-1.18-0.738-1.824l-0.461-1.912c-0.175-0.633-0.248-1.287-0.365-1.932l-0.162-0.97l-0.084-0.979
		c-0.063-0.653-0.111-1.307-0.077-1.963c0.009-0.328,0-0.656,0.025-0.983l0.117-0.977c0.027-0.327,0.095-0.648,0.172-0.967
		c0.078-0.318,0.125-0.644,0.229-0.956c0.187-0.629,0.395-1.25,0.636-1.859c0.113-0.303,0.22-0.631,0.49-0.853
		c0.139-0.107,0.346-0.121,0.502-0.043c0.158,0.073,0.288,0.187,0.404,0.307c0.449,0.499,0.749,1.095,1.036,1.687
		c0.281,0.597,0.528,1.206,0.75,1.829l0,0.003l-0.015-0.031c0.203,0.38,0.414,0.757,0.544,1.158c0.16,0.393,0.287,0.793,0.405,1.196
		c0.252,0.802,0.453,1.616,0.649,2.43c0.394,1.628,0.718,3.271,1.032,4.915c0.617,3.29,1.15,6.593,1.625,9.905
		c0.006,0.037-0.02,0.072-0.057,0.078C33.246,29.553,33.226,29.546,33.211,29.535z"/>
</g>
<path fill="#CCCCCC" d="M32.47,32.434c0,0,1.149,4.369-0.229,8.43c-1.381,4.062-2.721,6.403-2.492,8.163
	c0.23,1.763,0.919,3.54,2.721,4.509c0,0-4.651-1.901-2.747-7.536c1.904-5.634,2.21-6.056,2.326-7.916
	C32.165,36.227,32.47,32.434,32.47,32.434z"/>
<path d="M40.11,43.401c0,0-2.199-2.186-7.218-0.729C32.893,42.672,36.909,39.989,40.11,43.401z"/>
<path opacity="0.6" fill="#FFFFFF" d="M46.304,27.682c0,0,2.068-3.579,5.478-4.714c2.193-0.732,2.91-0.038,9.429-2.107
	c4.14-1.313,5.428-2.693,6.593-3.089l0.807,0.307c0,0-7.557,3.971-13.145,5.785C47.527,26.438,49.703,25.093,46.304,27.682z"/>
<g opacity="0.6">
	<g>
		<path fill="#FFFFFF" d="M32.241,29.959c-3.115-1.911-5.592-4.813-7.324-7.993c-2.198-4.034-1.661-8.507-0.616-12.805
			c0.344-1.414,0.979-4.058,2.644-4.528c2.082-0.588,2.791,5.178,2.991,5.988c0.671,2.716,2.336,4.642,3.559,7.135
			c1.435,2.924,1.718,8.16,1.389,11.231c-0.044,0.413,0.044,0.839,0,1.25c0.461-4.3-0.089-8.958-1.173-13.093
			c-0.476-1.816-1.914-3.504-2.852-5.107c-1.09-1.863-1.261-4.191-1.91-6.253c-0.305-0.968-0.652-2.249-1.793-2.414
			c-3.42-0.494-3.984,10.637-3.962,12.846c0.061,6.082,3.929,11.853,9.046,14.992C32.062,31.1,32.434,30.078,32.241,29.959
			L32.241,29.959z"/>
	</g>
</g>
<path fill="#7E7E7F" d="M30.325,11.739c0,0,4.183,10.207,4.022,20.26c-0.157,10.052,0,0,0,0s-8.622-5.332-9.071-12.096
	c0,0,1.104,3.03,3.337,5.576c1.664,1.896,2.761,3.086,4.712,4.343c0.061,0.042,0.147,0.031,0.219,0.045L30.325,11.739z"/>
<polygon fill="#7F7F7F" points="58.732,24.312 47.372,28.185 48.373,29.613 "/>
<path fill="#E19C8F" d="M32.847,28.562c0.215,0.113-2.004-12.963-3.864-17.32c0,0,0.269,0.919,0.422,11.878
	C29.406,23.121,28.553,26.34,32.847,28.562z"/>
<g>
	<path fill="#F2CDC1" d="M48.26,29.866c0,0,5.055-2.146,9.196-4.751c4.136-2.606,7.663-4.762,8.968-4.911
		c0,0-2.528,5.83-7.588,7.976C53.778,30.326,48.26,29.866,48.26,29.866z"/>
	<path d="M48.245,29.832l2.314-1.133c0.776-0.364,1.532-0.77,2.296-1.16c0.769-0.382,1.537-0.763,2.273-1.204l2.234-1.274
		c1.462-0.902,2.923-1.808,4.405-2.679c0.742-0.434,1.494-0.852,2.26-1.245c0.388-0.185,0.771-0.381,1.169-0.546l0.601-0.234
		c0.207-0.059,0.419-0.101,0.627-0.152l0,0l-0.001,0.002c-0.773,1.665-1.802,3.21-3.012,4.592c-0.312,0.339-0.622,0.677-0.962,0.988
		c-0.322,0.329-0.69,0.606-1.04,0.905c-0.377,0.264-0.735,0.556-1.139,0.78c-0.387,0.252-0.801,0.454-1.218,0.651
		c-0.419,0.202-0.858,0.328-1.287,0.495c-0.432,0.157-0.857,0.329-1.31,0.427l-1.338,0.348l-1.359,0.245
		c-0.451,0.093-0.91,0.131-1.367,0.183c-0.457,0.056-0.915,0.1-1.376,0.116c-0.459,0.027-0.919,0.056-1.38,0.041
		c-0.46-0.003-0.921-0.016-1.379-0.074c-0.021-0.003-0.036-0.022-0.033-0.043C48.225,29.848,48.234,29.837,48.245,29.832z
		 M48.263,29.828c0.915,0.002,1.831,0.012,2.745-0.044c0.458-0.013,0.914-0.052,1.369-0.105c0.455-0.048,0.912-0.082,1.362-0.171
		l1.354-0.233l1.33-0.334c0.448-0.093,0.877-0.262,1.31-0.416c0.427-0.163,0.876-0.289,1.285-0.482
		c0.415-0.193,0.827-0.389,1.213-0.637c0.403-0.219,0.762-0.507,1.138-0.767c0.351-0.294,0.72-0.568,1.044-0.893
		c0.341-0.307,0.653-0.642,0.966-0.978c1.219-1.369,2.258-2.904,3.045-4.563l0.001-0.002l0,0c-0.207,0.057-0.417,0.105-0.621,0.169
		l-0.593,0.25c-0.391,0.175-0.768,0.382-1.149,0.577c-0.75,0.417-1.49,0.851-2.229,1.289c-1.47,0.888-2.919,1.81-4.37,2.73
		l-2.227,1.306c-0.734,0.451-1.5,0.844-2.267,1.234c-0.772,0.379-1.527,0.793-2.32,1.131c-0.784,0.354-1.571,0.702-2.373,1.009
		L48.263,29.828z"/>
</g>
<path fill="#DF9B8E" d="M62.666,22.431c0,0-2.688,4.217-7.974,6.744l-6.432,0.733C48.26,29.908,57.99,25.88,62.666,22.431z"/>
<path d="M39.407,32.281c0,0-0.536-1.495-0.957-1.649c0,0-5.157,0.048-5.195,5.834C33.254,36.466,35.344,30.786,39.407,32.281z"/>
<path d="M44.942,31.464l0.226,1.115c0,0,2.873-0.929,4.088,1.014C49.255,33.593,49.822,30.495,44.942,31.464z"/>
<path fill="#6B6B6B" d="M35.874,30.392c0,0,5.371-0.91,8.191,3.704c0,0,0.258-0.402,0.001-2.659
	C43.81,29.181,35.459,30.409,35.874,30.392z"/>
<path fill="#493524" stroke="#11100F" stroke-width="0.25" stroke-miterlimit="10" d="M42.662,29.866c0,0,1.689-0.077,4.448,2.145
	l-2.05-2.704c0,0,1.896,0.565,4.426,2.251c0,0-0.843-4.603-6.514-4.069c0,0,2.298-1.72,6.514-1.512c0,0-4.443-3.122-8.586,0
	c0,0,0.538-2.703,4.828-3.929c0,0-6.41-0.053-8.045,3.929c0,0,0.153-2.626,1.838-3.547c0,0-3.906,0.646-4.062,6.262v1.556
	c0,0,5.076-1.522,8.245,2.556c0.062,0.08,0.12,0.162,0.184,0.245C43.888,33.049,45.192,31.017,42.662,29.866z"/>
<g opacity="0.5">
	<g>
		<g>
			<g>
				<g>
					<polygon fill="#BD7A0A" points="42.405,23.111 42.397,23.104 42.393,23.135 					"/>
					<path fill="#BD7A0A" d="M42.342,23.203l0.01,0.015l0.022-0.092C42.339,23.096,42.366,23.223,42.342,23.203z"/>
					<path fill="#BD7A0A" d="M42.326,23.202c-0.024-0.008-0.021,0.029-0.021,0.042C42.302,23.215,42.342,23.236,42.326,23.202z"/>
					<path fill="#BD7A0A" d="M40.725,24.025l0.004-0.005C40.726,24.021,40.725,24.022,40.725,24.025z"/>
					<path fill="#BD7A0A" d="M40.402,24.382l0.012,0.025c0.044-0.088,0.154-0.101,0.217-0.17l0,0.012
						c0.2-0.116,0.348-0.284,0.538-0.417c0,0.003-0.001,0.012-0.001,0.016c0.006-0.013,0.009-0.034,0.021-0.037
						c0.006,0.004,0.004,0.013,0.001,0.017c0.066,0.02,0.117-0.085,0.161-0.066c0.011-0.01,0.007-0.03-0.007-0.039
						c0.16-0.086,0.333-0.174,0.488-0.284c0.011,0.002,0.018,0.013,0.021,0.028c0.115-0.134,0.28-0.176,0.433-0.232
						c-0.001-0.021-0.022-0.013-0.016-0.038c-0.057-0.001-0.07,0.084-0.126,0.071l-0.002-0.02c-0.036,0.003,0.012,0.047-0.03,0.04
						c-0.019-0.009-0.006-0.024-0.013-0.022c-0.063,0.038-0.141,0.054-0.187,0.125c-0.031-0.03-0.072,0.032-0.112,0.007
						c-0.012,0.023-0.03,0.027-0.026,0.055c-0.243,0.088-0.468,0.229-0.705,0.341c-0.062,0.137-0.232,0.136-0.341,0.24l-0.004-0.007
						c-0.029,0.043-0.082,0.089-0.134,0.112l-0.021,0.055c-0.317,0.139-0.601,0.345-0.865,0.569c-0.302,0.25-0.622,0.423-0.81,0.775
						c-0.005-0.006-0.01-0.006-0.006-0.016c-0.062,0.093-0.151,0.148-0.209,0.236l-0.005-0.005
						c-0.122,0.237-0.375,0.388-0.474,0.627c-0.185,0.237-0.391,0.511-0.558,0.782l-0.013-0.01
						c-0.109,0.233-0.316,0.394-0.429,0.625c-0.128,0.174-0.178,0.404-0.267,0.602l-0.014,0.031l0.001-0.035
						c0.002-0.05,0.008-0.098,0.019-0.146c0.086-0.156-0.067-0.384,0.021-0.531c0.138-0.305,0.077-0.617,0.022-0.936
						c0.059-0.287-0.036-0.583,0.067-0.859c-0.049-0.136,0.085-0.276,0.077-0.425l-0.02,0.004c0.062-0.05-0.076-0.123,0.013-0.152
						l0.004,0.006c0.046-0.026-0.102-0.071-0.047-0.085l-0.022-0.006c-0.004-0.034,0.025-0.002,0.036-0.028
						c-0.002-0.01-0.04-0.006-0.026-0.026c0.09,0-0.015-0.084,0.086-0.082c-0.001,0.019,0.041-0.027,0.06,0.016
						c0.011-0.011,0.009-0.069-0.034-0.065c-0.045-0.007-0.083-0.032-0.121,0.001l0.033,0.009c-0.034,0.01-0.017,0.008-0.042,0.011
						c-0.007,0.045-0.056,0.049-0.078,0.081h0.004c0.039,0.024,0.013,0.054,0.006,0.071l-0.019,0.006
						c-0.04,0.008,0.072,0.055,0.007,0.038c0.012,0.093,0.005,0.198,0,0.301c0.024,0.016-0.006,0.079,0.043,0.059
						c-0.057,0.022-0.075,0.098-0.074,0.127c-0.005-0.001-0.011-0.003-0.008-0.007c-0.075,0.051,0.062,0.069-0.028,0.116
						c0.062,0.012-0.025,0.093,0.046,0.126c-0.014,0.005-0.027,0.007-0.038,0.004c-0.007,0.093-0.035,0.194-0.042,0.273
						c0.051,0.071-0.033,0.161,0.039,0.224c-0.019,0.047-0.054,0.123-0.028,0.191l-0.009-0.007c0,0.076-0.001,0.17,0.043,0.226
						c-0.073,0.018-0.061,0.051-0.085,0.082c0.031,0.053,0.015,0.154,0.042,0.233c-0.034,0.009,0.01,0.064-0.038,0.065
						c0.081,0.222,0.034,0.487-0.049,0.711l-0.003-0.004c0.024,0.032,0.081,0.071,0.113,0.104c-0.004,0.003-0.012,0.002-0.012-0.004
						c0.007,0.042-0.042,0.078-0.036,0.121c-0.008-0.001-0.008-0.001-0.015-0.008c0.019,0.041-0.043,0.078-0.008,0.128l-0.013,0.001
						l0.015,0.029l0.202,0.054l-0.002-0.003l0.015,0.009l-0.233-0.062c-0.01-0.002-0.019-0.007-0.015-0.017l-0.001,0.016
						l-0.062,0.668l0.328-0.597c0.166-0.3,0.279-0.66,0.491-0.957l0.005,0.02l0.016-0.075c0.006,0.004,0.008,0.01,0.009,0.015
						c0.072-0.062,0.085-0.166,0.139-0.237c0.006,0.005,0.012,0.025,0.025,0.02c-0.001-0.081,0.107-0.054,0.052-0.132
						c0.005,0,0.023,0.01,0.025,0.02c0.085-0.163,0.2-0.312,0.322-0.451c0.031-0.171,0.183-0.27,0.246-0.425l0.012,0.011
						c0.096-0.191,0.29-0.314,0.426-0.48c0.064-0.062,0.091-0.12,0.151-0.187l0.016,0.013c0.041-0.173,0.279-0.167,0.335-0.335
						l0.011,0.027c-0.011-0.047,0.082-0.052,0.025-0.1l0.036-0.002c0.016-0.143,0.176-0.096,0.232-0.229l0.005,0.019
						c0.018-0.033,0.041-0.068,0.071-0.073c-0.001,0.004,0.003,0.007,0,0.016c0.126-0.019,0.168-0.158,0.257-0.232l0.01,0.034
						c0.015-0.07,0.124-0.097,0.174-0.151l0.005,0.015l0.018-0.038l0.019,0.024C40.268,24.508,40.327,24.437,40.402,24.382z"/>
					<path fill="#BD7A0A" d="M41.19,23.828L41.19,23.828C41.187,23.831,41.189,23.831,41.19,23.828z"/>
					<path fill="#BD7A0A" d="M36.961,25.171l0.007-0.011C36.962,25.161,36.962,25.167,36.961,25.171z"/>
				</g>
			</g>
		</g>
	</g>
</g>
<g opacity="0.5">
	<g>
		<g>
			<g>
				<g>
					<polygon fill="#BD7A0A" points="47.442,25.754 47.442,25.744 47.421,25.764 					"/>
					<path fill="#BD7A0A" d="M47.353,25.783l-0.004,0.017l0.068-0.053C47.417,25.701,47.353,25.812,47.353,25.783z"/>
					<path fill="#BD7A0A" d="M47.345,25.771c-0.008-0.021-0.027,0.008-0.036,0.018C47.326,25.767,47.333,25.807,47.345,25.771z"/>
					<path fill="#BD7A0A" d="M46.019,25.419l0.005-0.002C46.022,25.417,46.02,25.417,46.019,25.419z"/>
					<path fill="#BD7A0A" d="M45.656,25.515l-0.006,0.028c0.068-0.045,0.138,0.009,0.208-0.008l-0.005,0.01
						c0.163,0.007,0.337,0.015,0.513,0.022l-0.01,0.013c0.011-0.007,0.023-0.023,0.032-0.019c0.001,0.007-0.006,0.012-0.009,0.015
						c0.026,0.052,0.112-0.007,0.127,0.032c0.012-0.002,0.021-0.02,0.019-0.036c0.14,0.009,0.282,0.045,0.426,0.066
						c0.004,0.008,0.001,0.021-0.006,0.035c0.138-0.028,0.25,0.045,0.36,0.099c0.013-0.016-0.004-0.023,0.017-0.038
						c-0.029-0.037-0.088,0.019-0.108-0.027l0.012-0.016c-0.021-0.021-0.023,0.042-0.04,0.01c-0.004-0.018,0.012-0.021,0.007-0.024
						c-0.056-0.012-0.105-0.049-0.171-0.024c0.002-0.043-0.056-0.022-0.062-0.067c-0.02,0.01-0.031,0.001-0.045,0.025
						c-0.176-0.103-0.389-0.086-0.582-0.133c-0.106,0.061-0.199-0.06-0.313-0.049l0.001-0.008c-0.039,0.017-0.092,0.023-0.134,0.011
						l-0.04,0.031c-0.253-0.085-0.521-0.062-0.784-0.061c-0.3-0.012-0.573-0.027-0.841,0.13c-0.001-0.008-0.004-0.011,0.003-0.016
						c-0.079,0.031-0.161,0.012-0.234,0.047l-0.002-0.008c-0.173,0.114-0.396,0.097-0.558,0.213
						c-0.219,0.064-0.46,0.159-0.679,0.261l-0.005-0.015c-0.164,0.106-0.368,0.104-0.536,0.204
						c-0.194,0.055-0.324,0.262-0.524,0.308c-0.145-0.008-0.205,0.217-0.345,0.204c-0.271,0.01-0.426,0.207-0.587,0.392
						c-0.207,0.086-0.325,0.297-0.546,0.352c-0.049,0.103-0.212,0.07-0.292,0.151l0.015,0.013c-0.068-0.022-0.021,0.12-0.094,0.066
						l0.001-0.005c-0.044-0.021,0.027,0.113-0.016,0.08l0.011,0.019c-0.016,0.021-0.018-0.018-0.039-0.012
						c-0.004,0.007,0.023,0.033,0.003,0.033c-0.06-0.067-0.037,0.055-0.103-0.022c0.011-0.009-0.042-0.015-0.031-0.053
						c-0.014-0.002-0.045,0.031-0.014,0.061c0.027,0.037,0.04,0.078,0.083,0.087l-0.018-0.028c0.028,0.02,0.016,0.008,0.034,0.025
						c0.029-0.019,0.062,0.016,0.094,0.017l-0.002-0.003c-0.012-0.041,0.021-0.037,0.035-0.041l0.016,0.011
						c0.03,0.025-0.018-0.083,0.016-0.025c0.042-0.056,0.107-0.103,0.167-0.151c-0.007-0.026,0.048-0.034,0.005-0.062
						c0.049,0.033,0.103,0.009,0.119-0.005c0.002,0.005,0.005,0.01,0.001,0.01c0.076,0.034,0-0.083,0.083-0.034
						c-0.031-0.054,0.069-0.025,0.044-0.097c0.012,0.008,0.021,0.018,0.025,0.027c0.058-0.039,0.132-0.067,0.183-0.097
						c0.011-0.073,0.115-0.047,0.109-0.134c0.039-0.007,0.104-0.013,0.129-0.066l0.001,0.01c0.044-0.036,0.102-0.077,0.109-0.137
						c0.053,0.052,0.066,0.027,0.099,0.033c0.015-0.048,0.085-0.08,0.118-0.136c0.024,0.024,0.032-0.037,0.061,0.003
						c0.087-0.168,0.283-0.233,0.466-0.258l-0.001,0.004c0.007-0.034,0.001-0.098,0.005-0.14c0.004,0.003,0.008,0.01,0.003,0.012
						c0.023-0.023,0.072,0.003,0.096-0.02c0.003,0.007,0.003,0.007,0.002,0.016c0.017-0.032,0.073,0.007,0.087-0.042l0.008,0.01
						l0.012-0.026c0.007,0.015,0.017,0.036,0.004,0.037c0.247-0.108,0.461-0.309,0.725-0.402l-0.004,0.018l0.039-0.046
						c0.003,0.007,0.002,0.012,0.001,0.016c0.074-0.002,0.122-0.072,0.187-0.092c0.002,0.007-0.001,0.026,0.011,0.03
						c0.029-0.061,0.095,0.025,0.085-0.068c0.004,0.003,0.013,0.022,0.011,0.03c0.118-0.074,0.253-0.12,0.389-0.152
						c0.083-0.12,0.23-0.083,0.328-0.175l0.004,0.016c0.137-0.094,0.312-0.083,0.467-0.128c0.067-0.005,0.108-0.032,0.176-0.044
						l0.005,0.02c0.1-0.096,0.246,0.028,0.351-0.076l-0.005,0.029c0.013-0.045,0.072,0.003,0.057-0.069l0.023,0.019
						c0.07-0.102,0.151,0.035,0.244-0.034l-0.005,0.018c0.025-0.015,0.056-0.028,0.076-0.013c-0.003,0.003-0.002,0.008-0.008,0.013
						c0.087,0.063,0.173-0.018,0.261-0.021l-0.009,0.033c0.041-0.041,0.118-0.013,0.173-0.023l-0.003,0.015l0.028-0.02v0.031
						C45.517,25.537,45.584,25.515,45.656,25.515z"/>
					<path fill="#BD7A0A" d="M46.379,25.575l-0.001-0.001C46.375,25.576,46.377,25.576,46.379,25.575z"/>
					<path fill="#BD7A0A" d="M39.853,27.904l-0.011,0.001C39.846,27.91,39.85,27.905,39.853,27.904z"/>
				</g>
			</g>
		</g>
	</g>
</g>
<g opacity="0.5">
	<g>
		<g>
			<g>
				<g>
					<polygon fill="#BD7A0A" points="47.918,29.343 47.921,29.333 47.901,29.352 					"/>
					<path fill="#BD7A0A" d="M47.846,29.369l-0.008,0.016l0.064-0.049C47.916,29.294,47.837,29.396,47.846,29.369z"/>
					<path fill="#BD7A0A" d="M47.843,29.359c0.001-0.02-0.022,0.007-0.031,0.016C47.831,29.354,47.825,29.391,47.843,29.359z"/>
					<path fill="#BD7A0A" d="M47.031,28.931l0.004,0C47.034,28.928,47.033,28.929,47.031,28.931z"/>
					<path fill="#BD7A0A" d="M46.771,28.931l-0.014,0.024c0.062-0.034,0.085,0.039,0.134,0.041l-0.007,0.007
						c0.099,0.066,0.214,0.077,0.326,0.115l-0.01,0.011c0.009-0.006,0.022-0.019,0.027-0.013c-0.002,0.006-0.008,0.01-0.011,0.012
						c0,0.053,0.077,0.01,0.074,0.048c0.009-0.001,0.021-0.016,0.023-0.031c0.087,0.034,0.178,0.074,0.279,0.089
						c0.001,0.008-0.005,0.019-0.015,0.032c0.109-0.025,0.169,0.042,0.235,0.092c0.013-0.015,0.004-0.021,0.021-0.035
						c-0.01-0.034-0.068,0.017-0.07-0.025l0.013-0.014c-0.009-0.019-0.028,0.039-0.032,0.009c0.003-0.017,0.015-0.02,0.013-0.022
						c-0.037-0.012-0.062-0.045-0.117-0.023c0.014-0.04-0.035-0.021-0.026-0.061c-0.018,0.009-0.023,0.001-0.041,0.022
						c-0.104-0.082-0.241-0.112-0.356-0.179c-0.091,0.041-0.113-0.08-0.19-0.092l0.003-0.007c-0.029,0.006-0.064-0.002-0.085-0.025
						l-0.036,0.019c-0.124-0.144-0.319-0.142-0.473-0.232c-0.182-0.085-0.336-0.199-0.548-0.163
						c0.002-0.007,0.002-0.012,0.007-0.014c-0.058-0.001-0.103-0.034-0.158-0.029l0.002-0.007c-0.144,0.039-0.268-0.06-0.405-0.014
						c-0.149-0.03-0.319-0.074-0.483-0.058l0.002-0.016c-0.132,0.026-0.252-0.064-0.383-0.046c-0.134-0.039-0.275,0.067-0.408,0.029
						c-0.086-0.072-0.188,0.1-0.269,0.024c-0.168-0.107-0.323-0.033-0.469,0.07c-0.151-0.019-0.277,0.108-0.433,0.05
						c-0.053,0.071-0.153-0.035-0.225-0.001l0.008,0.019c-0.042-0.051-0.037,0.094-0.077,0.013l0.002-0.004
						c-0.026-0.04-0.004,0.11-0.026,0.061l0.004,0.022c-0.014,0.011-0.009-0.023-0.023-0.028c-0.005,0.004,0.01,0.039-0.004,0.03
						c-0.029-0.085-0.034,0.031-0.067-0.065c0.01-0.002-0.027-0.033-0.013-0.059c-0.009-0.008-0.037,0.006-0.02,0.045
						c0.012,0.044,0.015,0.085,0.043,0.113l-0.008-0.032c0.016,0.03,0.008,0.015,0.02,0.037c0.023-0.002,0.041,0.043,0.062,0.058
						l-0.001-0.003c-0.002-0.041,0.02-0.023,0.029-0.02l0.008,0.017c0.016,0.036,0.003-0.08,0.015-0.014
						c0.039-0.027,0.092-0.038,0.141-0.051c0.001-0.026,0.039-0.007,0.017-0.051c0.025,0.051,0.065,0.056,0.078,0.05
						c0.001,0.005,0.002,0.011-0.001,0.01c0.042,0.063,0.018-0.073,0.061,0.007c-0.009-0.062,0.049,0.008,0.049-0.065
						c0.006,0.013,0.009,0.025,0.01,0.036c0.046-0.006,0.101,0.008,0.14,0.005c0.023-0.059,0.083,0.012,0.1-0.067
						c0.026,0.012,0.069,0.038,0.098,0.002l-0.002,0.01c0.036-0.01,0.082-0.021,0.102-0.072c0.02,0.07,0.034,0.053,0.053,0.073
						c0.021-0.038,0.072-0.028,0.107-0.062c0.01,0.033,0.03-0.016,0.037,0.032c0.099-0.099,0.237-0.074,0.354-0.011l-0.002,0.003
						c0.01-0.027,0.031-0.087,0.044-0.122c0.001,0.004,0.001,0.012-0.002,0.012c0.021-0.01,0.042,0.036,0.062,0.026
						c0,0.008,0,0.008-0.003,0.016c0.02-0.022,0.041,0.036,0.063-0.002l0.002,0.013l0.015-0.019
						c-0.001,0.016-0.001,0.04-0.009,0.035c0.179,0.023,0.367-0.048,0.553-0.026l-0.008,0.015l0.038-0.025
						c-0.001,0.008-0.003,0.012-0.005,0.015c0.044,0.029,0.095-0.013,0.14-0.004c-0.001,0.008-0.01,0.023-0.004,0.032
						c0.037-0.042,0.047,0.059,0.073-0.03c0.001,0.004,0,0.024-0.005,0.032c0.095-0.019,0.188,0.005,0.277,0.035
						c0.089-0.066,0.162,0.022,0.253-0.026l-0.003,0.016c0.114-0.037,0.212,0.044,0.32,0.053c0.043,0.017,0.079-0.002,0.121,0.014
						l-0.004,0.02c0.094-0.049,0.132,0.12,0.231,0.064l-0.014,0.024c0.024-0.037,0.041,0.031,0.059-0.041l0.007,0.026
						c0.081-0.074,0.079,0.075,0.162,0.038l-0.01,0.015c0.021-0.007,0.044-0.01,0.051,0.009c-0.003,0.001-0.004,0.007-0.009,0.01
						c0.028,0.083,0.112,0.032,0.167,0.054l-0.018,0.028c0.04-0.026,0.076,0.024,0.117,0.021l-0.008,0.013l0.026-0.014l-0.012,0.028
						C46.672,28.928,46.725,28.918,46.771,28.931z"/>
					<path fill="#BD7A0A" d="M47.217,29.128L47.217,29.128C47.214,29.129,47.215,29.129,47.217,29.128z"/>
					<path fill="#BD7A0A" d="M42.575,28.73l-0.008-0.004C42.57,28.732,42.572,28.729,42.575,28.73z"/>
				</g>
			</g>
		</g>
	</g>
</g>
<path fill="#FFFFFF" stroke="#000000" stroke-width="0.25" stroke-miterlimit="10" d="M41.476,38.219
	c0,2.349-1.146,3.949-3.026,3.949c-1.887,0-4.103-1.827-4.103-4.176c0-2.35,1.552-3.987,3.436-3.987
	C39.667,34.004,41.476,35.87,41.476,38.219z"/>
<path fill="#CBE5E5" d="M39.719,34.81c0,0,0.247,4.384-5.142,3.268c0,0-0.296,4.487,4.575,3.803
	C42.673,41.391,41.625,35.712,39.719,34.81z"/>
<path fill="#D6D6D6" d="M40.364,43.712c0,0-5.829-1.178-7.471-1.04l2.567-0.572C35.459,42.101,38.959,41.846,40.364,43.712z"/>
<path fill="none" stroke="#000000" stroke-width="0.25" stroke-miterlimit="10" d="M41.476,38.124c0,2.35-1.146,3.946-3.026,3.946
	c-1.887,0-4.103-1.827-4.103-4.176s1.552-3.986,3.436-3.986C39.667,33.908,41.476,35.775,41.476,38.124z"/>
<ellipse cx="37.232" cy="38.68" rx="1.476" ry="1.763"/>
<path fill="#FFFFFF" stroke="#000000" stroke-width="0.25" stroke-miterlimit="10" d="M36.342,37.991
	c0-0.361,0.26-0.654,0.585-0.654c0.322,0,0.583,0.293,0.583,0.654c0,0.359-0.26,0.651-0.583,0.651
	C36.602,38.642,36.342,38.35,36.342,37.991z"/>
<path fill="#FFFFFF" stroke="#000000" stroke-width="0.25" stroke-miterlimit="10" d="M49.764,38.42c0,1.729-0.521,2.73-2.496,2.73
	c-1.219,0-2.766-1.827-2.766-3.555c0-1.73,1.008-2.71,2.226-2.71C48.468,34.886,49.764,36.692,49.764,38.42z"/>
<path fill="#CBE5E5" d="M49.366,36.646c0,0-0.692,2.536-2.59,2.491l-1.301,1.51c0,0,2.161,1.312,3.481,0
	C50.282,39.341,49.366,36.646,49.366,36.646z"/>
<path d="M45.115,38.642c0-0.868,0.606-1.305,1.111-1.305c0.51,0,1.265,0.438,1.265,1.305c0,0.866-0.592,1.379-1.1,1.379
	C45.884,40.021,45.115,39.508,45.115,38.642z"/>
<ellipse fill="#FFFFFF" cx="46.304" cy="38.084" rx="0.325" ry="0.573"/>
<path fill="none" stroke="#000000" stroke-width="0.25" stroke-miterlimit="10" d="M49.764,38.41c0,1.724-0.521,2.721-2.496,2.721
	c-1.219,0-2.766-1.818-2.766-3.544c0-1.723,1.011-2.701,2.226-2.701C48.468,34.886,49.764,36.685,49.764,38.41z"/>
<path fill="#F3D6BC" stroke="#000000" stroke-width="0.25" stroke-miterlimit="10" d="M40.11,46.5
	c0.05-0.162,1.02-2.379,2.362-3.068c0,0-0.651-3.411,3.372-2.873l1.149,0.688c0,0,3.948-1.435,8.086,0.983
	c0.036,0.019,0.997-1.252,2.528-0.823c0,0,1.496,0.414,1.229,1.911c-0.271,1.494-0.96,2.145-1.229,2.644l-0.114,2.761
	c0,0,1.993,0.881,1.61,1.265c-0.383,0.383,0.459,1.105-2.76,1.223c-3.222,0.117-5.209,1.457-12.225,0.271
	c0,0-5.905-1.767-8.329-6.544L40.11,46.5z"/>
<path fill="#C4A797" stroke="#000000" stroke-width="0.25" stroke-miterlimit="10" d="M46.629,61.443c0,0-9.643,3.938-10.651-7.441
	c0,0-0.592-3.998-0.187-9.064c0,0,0.684,1.672,1.136,5.354c0.448,3.681,2.02,5.444,3.667,7.359s4.196,2.068,7.231,1.529
	c0,0-0.638-3.021,0.435-4.32l1.092,0.123c0,0-1.235,1.747-0.359,3.74c0,0,0.809,1.11,0,1.38L46.629,61.443z"/>
<path d="M38.374,44.622c0,0-3.757-0.537-5.098,2.067C33.275,46.689,34.118,42.475,38.374,44.622z"/>
<path fill="#C4A797" stroke="#000000" stroke-width="0.25" stroke-linecap="round" stroke-miterlimit="10" d="M45.99,60.955
	c0,0,2.725-0.659,3.003-0.853"/>
<path opacity="0.7" fill="#FAF8E9" d="M58.732,43.203c0,0,0-2.354-2.638-1.533l-0.858,0.638c0,0-1.381-1.459-6.536-1.251
	l-1.825,0.479c0,0-1.388-1.875-3.572-0.303c0,0-1.827,1.511,0.472,4.119c0,0-1.088-2.55-0.076-3.52
	c0.805-0.773,1.874-1.998,4.325,1.183l0.564-1.292c3.586-0.79,4.728-0.289,6.878,1.89l1.312-1.477
	C57.584,41.903,58.088,41.991,58.732,43.203z"/>
<path opacity="0.8" fill="#C4A797" d="M40.678,49.616c-2.146-1.462,5.086,2.686,11.544,0.793c7.59-2.217,6.454,0.384,6.454,0.384
	s-3.984,0.371-6.944,0.842C48.993,52.071,43.891,51.796,40.678,49.616z"/>
<path fill="#F3D6BC" d="M48.646,59.118c-0.07-0.178-5.022,1.96-8.536-1.984c0,0-4.077-4.198-4.077-10.482
	c0,0-0.242,12.744,6.785,14.304C42.818,60.955,49.352,60.955,48.646,59.118z"/>
<path fill="none" stroke="#000000" stroke-width="0.25" stroke-linecap="round" stroke-miterlimit="10" d="M48.023,43.014
	c0,0-2.049-3.69-4.28-2.286c-2.228,1.401-1.104,3.776,0,4.889"/>
<path fill="none" stroke="#000000" stroke-width="0.25" stroke-linecap="round" stroke-miterlimit="10" d="M55.886,43.049
	c0,0-2.977-3.552-9.087-1.624"/>
<path d="M46.802,46.234c0,0,1.475-0.234,1.023-1.537c-0.447-1.306-1.941-3.133-3.015-2.466c-1.074,0.665-0.998,2.103,0.304,2.707
	C46.419,45.539,46.994,45.396,46.802,46.234z"/>
<path d="M56.997,46.958c0,0-2.034-2.032,0-3.909c0,0,0.651-0.497,0.387,1.112c-0.271,1.608,0.163,0.917,0.062,1.455
	C57.34,46.152,56.997,46.958,56.997,46.958z"/>
<path d="M54.005,48.566c0,0,0.807-0.959,0-3.833C54.005,44.733,55.54,46.917,54.005,48.566z"/>
<path fill="#F4F4F4" stroke="#000000" stroke-width="0.25" stroke-miterlimit="10" d="M54.692,51.371l-1.645,3.287
	c0,0-0.384,0.803-5.135,0.155l0.46-2.529C48.373,52.284,54.391,51.967,54.692,51.371z"/>
<polygon points="50.061,54.854 51.299,52.935 51.299,55.062 "/>
<path d="M48.373,52.075c0,0-0.746,2.384-0.229,3.312c0,0-1.131,0.958-0.317,3.793c0,0-6.018,2.096-8.841-3.51
	c0,0-2.287-2.708-2.275-6.9c0,0-0.586-3.503-0.918-3.832l0,0c0,0,1.389,2.94,6.104,5.468C45.152,52.148,48.373,52.075,48.373,52.075
	z"/>
<path fill="#F27382" stroke="#AD3B4B" stroke-width="0.25" stroke-miterlimit="10" d="M46.304,59.222c0,0-0.163-4.786-3.486-3.836
	c0,0-1.688-2.376-4.444-1.072c0,0,0.688,2.419,3.601,4.448C41.974,58.762,44.274,59.795,46.304,59.222z"/>
<polygon points="43.259,56.658 43.259,56.658 42.972,55.062 42.083,54.332 "/>
</svg>
